<svg xmlns="http://www.w3.org/2000/svg" viewBox="0 0 100 100" preserveAspectRatio="xMidYMid" width="198" height="198" style="shape-rendering: auto; display: block; background: transparent;" xmlns:xlink="http://www.w3.org/1999/xlink"><g><g transform="translate(50 50)">
  <g transform="scale(0.9)">
    <g transform="translate(-50 -50)">
      <g>
        <animateTransform dur="1.5625s" keyTimes="0;1" values="0 50 50;360 50 50" repeatCount="indefinite" type="rotate" attributeName="transform"></animateTransform>
        <path d="M50 50L50 0A50 50 0 0 1 100 50Z" fill="#7b1315" fill-opacity="0.8"></path>
      </g>
      <g>
        <animateTransform dur="2.0833333333333335s" keyTimes="0;1" values="0 50 50;360 50 50" repeatCount="indefinite" type="rotate" attributeName="transform"></animateTransform>
        <path transform="rotate(90 50 50)" d="M50 50L50 0A50 50 0 0 1 100 50Z" fill="#bb2626" fill-opacity="0.8"></path>
      </g>
      <g>
        <animateTransform dur="3.125s" keyTimes="0;1" values="0 50 50;360 50 50" repeatCount="indefinite" type="rotate" attributeName="transform"></animateTransform>
        <path transform="rotate(180 50 50)" d="M50 50L50 0A50 50 0 0 1 100 50Z" fill="#f4971d" fill-opacity="0.8"></path>
      </g>
      <g>
        <animateTransform dur="6.25s" keyTimes="0;1" values="0 50 50;360 50 50" repeatCount="indefinite" type="rotate" attributeName="transform"></animateTransform>
        <path transform="rotate(270 50 50)" d="M50 50L50 0A50 50 0 0 1 100 50Z" fill="#f59e0b" fill-opacity="0.8"></path>
      </g>
    </g>
  </g>
</g><g></g></g><!-- [ldio] generated by https://loading.io --></svg>